<svg id="Layer_1" data-name="Layer 1" xmlns="http://www.w3.org/2000/svg" viewBox="0 0 250 60"><defs><style>.cls-1{font-size:30.65px;font-family:Aachen-Bold;font-weight:700;letter-spacing:0.6em;}.cls-2{letter-spacing:0.64em;}.cls-3{font-size:12px;font-family:MVBoli, MV Boli;}</style></defs><circle cx="51.28" cy="12.93" r="3.71"/><circle cx="13.92" cy="12.93" r="3.71"/><path d="M47.57,22.66s-1.44-3.39,3.26-5.11c1.8-.66,3.69.89,4.16,2.69l1,15-1,.36,1,14.82H52.76L52.31,36l-1.62.09L50,50.42H46.74l.64-14.36L46.74,36V28.5s-1.68,3.72-3.32,4.13c-.82.21-2.64-1.7-1.8-2.87C43,27.89,47.57,22.66,47.57,22.66Z"/><path d="M8.57,39.88s1.48-14.84,1.63-20c0-1.08,1.82-2.22,3.72-2.22,2.76,0,3.19,3.06,3.71,5.21.59,2.49,3.56,5.18,5.19,6.17,1,.62,4.67.66,4.67.66l.84,4.19H25.51L25.35,32,21,32l-2.75-3.4,1.07,11.24H17.73L18.45,50h-2.7l-1.83-9.82L12,50H9.46l1.08-10.18Z"/><polygon points="25.51 33.89 44.79 33.43 41.4 45.69 27.85 45.69 25.51 33.89"/><circle cx="30.24" cy="48.44" r="2.22"/><circle cx="38.99" cy="48.68" r="2.1"/><path d="M10.76,12.7s-.89-.74-1.64-.49c-.6.19-.65,1.18-1.66,1.14a14.16,14.16,0,0,1-2.27-.8s.86,1.63,1.71,1.74C8.43,14.47,10,12.48,10.76,12.7Z"/><text class="cls-1" transform="translate(82.95 33.64) scale(0.78 1)">P<tspan class="cls-2" x="40.58" y="0">ASAL</tspan></text><text class="cls-3" transform="translate(84.35 51.24)">Seamless Online Shopping</text></svg>